<?xml version="1.0" standalone="no"?><!DOCTYPE svg PUBLIC "-//W3C//DTD SVG 1.1//EN" "http://www.w3.org/Graphics/SVG/1.1/DTD/svg11.dtd"><svg t="1636465947962" class="icon" viewBox="0 0 1152 1024" version="1.1" xmlns="http://www.w3.org/2000/svg" p-id="1138" xmlns:xlink="http://www.w3.org/1999/xlink" width="225" height="200"><defs><style type="text/css"></style></defs><path d="M442.788245 801.994874h-160.287382v-160.084487a20.289542 20.289542 0 0 0-20.289542-20.289542A200.663571 200.663571 0 0 0 94.822599 933.674002c60.949784 92.560891 185.385546 118.186583 277.966726 57.216509a200.663571 200.663571 0 0 0 90.288462-167.794513 20.289542 20.289542 0 0 0-20.289542-21.101124z m-200.866466-138.577572V811.93675L118.561363 893.094918a160.084487 160.084487 0 0 1 123.360416-229.474721z m20.289542 318.951601a160.490278 160.490278 0 0 1-121.737253-55.593345l127.62122-84.2016H420.87554a160.287382 160.287382 0 0 1-158.664219 139.794945z" fill="#384584" p-id="1139"></path><path d="M327.543646 556.28852a20.289542 20.289542 0 0 0-20.289542 20.289542v180.374029a20.289542 20.289542 0 0 0 20.289542 20.289542h180.374029a20.289542 20.289542 0 0 0 20.289542-20.289542c-0.101448-110.7809-89.882671-200.541834-200.663571-200.663571z m20.289542 180.374029v-138.577573a160.490278 160.490278 0 0 1 138.577573 138.577573zM1151.299054 127.976287a74.056829 74.056829 0 0 0-136.142827-40.579085L855.07174 64.47002a73.853933 73.853933 0 1 0-132.287814 53.767286l-147.910762 192.547755a70.607606 70.607606 0 0 0-31.245895-6.086863 72.839456 72.839456 0 0 0-49.100692 18.869274L416.00605 264.119114a77.708946 77.708946 0 0 0 2.63764-20.289542 73.853933 73.853933 0 1 0-147.707866 0 71.622084 71.622084 0 0 0 8.115817 33.477744L20.359979 562.172487A20.289542 20.289542 0 1 0 35.37424 596.056022a20.289542 20.289542 0 0 0 15.014262-7.304235l256.459811-281.010158a72.433665 72.433665 0 0 0 37.941444 10.550562 73.448142 73.448142 0 0 0 50.115169-20.289542l77.911841 58.230986a68.984443 68.984443 0 0 0-3.043431 20.289542 74.056829 74.056829 0 0 0 147.910762 0 73.042351 73.042351 0 0 0-11.97083-40.579084L754.841402 142.381861a73.245247 73.245247 0 0 0 94.346371-38.347234l154.20052 22.521392a74.056829 74.056829 0 0 0 147.910761 0z m-790.277663 145.273121a31.44879 31.44879 0 0 1-16.231634 4.463699 29.014045 29.014045 0 0 1-9.333189-1.420268 33.274849 33.274849 0 0 1-23.94166-32.463267 9.941876 9.941876 0 0 1 0-2.434745 33.274849 33.274849 0 0 1 33.071954-31.043 32.869058 32.869058 0 0 1 31.44879 23.130078c1.217373 3.307195 1.846348 6.817286 1.826059 10.347667a32.869058 32.869058 0 0 1-16.84032 29.419836z m182.605878 137.563095A33.071954 33.071954 0 0 1 511.569793 385.856366a32.869058 32.869058 0 0 1 17.246111-37.738548c4.565147-2.63764 9.73898-3.956461 15.014261-3.855013h5.072385a33.274849 33.274849 0 0 1 28.202464 30.231418 11.565039 11.565039 0 0 1 0 2.63764 33.274849 33.274849 0 0 1-33.477745 33.68064zM806.376839 98.15066a32.463267 32.463267 0 0 1-23.130078 9.536085 33.274849 33.274849 0 0 1-32.057476-24.956137 28.81115 28.81115 0 0 1-1.217373-8.521608A33.477744 33.477744 0 0 1 782.029389 40.934151a32.463267 32.463267 0 0 1 28.811149 17.043215c2.941984 4.910069 4.463699 10.509983 4.4637 16.231634A33.883535 33.883535 0 0 1 806.376839 98.15066z m237.996329 34.695117a39.361712 39.361712 0 0 1 0-4.86949c0-11.463591 5.883967-22.115601 15.622947-28.202464a31.854581 31.854581 0 0 1 17.854797-5.275281 33.477744 33.477744 0 1 1-33.071954 38.347235z" fill="#EAA850" p-id="1140"></path><path d="M1131.009512 292.524473h-81.158168a20.289542 20.289542 0 0 0-20.289542 20.289542v689.84443a20.289542 20.289542 0 0 0 20.289542 20.289542h81.158168a20.289542 20.289542 0 0 0 20.289542-20.289542v-689.84443a20.289542 20.289542 0 0 0-20.289542-20.289542z m-20.289542 689.84443h-40.579084v-649.265346h40.579084z" fill="#384584" p-id="1141"></path><path d="M916.751948 571.099885h-81.158168a20.289542 20.289542 0 0 0-20.289542 20.289542V1002.658445a20.289542 20.289542 0 0 0 20.289542 20.289542h81.158168a20.289542 20.289542 0 0 0 20.289542-20.289542V591.389427a20.289542 20.289542 0 0 0-20.289542-20.289542z m-20.289542 411.269018h-40.579084V611.67897h40.579084zM704.929129 669.909955h-81.158169a20.289542 20.289542 0 0 0-20.289542 20.289542v312.458948a20.289542 20.289542 0 0 0 20.289542 20.289542h81.158169a20.289542 20.289542 0 0 0 20.289542-20.289542V690.199497a20.289542 20.289542 0 0 0-20.289542-20.289542z m-20.289542 312.458948h-40.579084V710.489039h40.579084z" fill="#384584" p-id="1142"></path></svg>